<?xml version="1.0" encoding="UTF-8"?>
<svg id="Capa_1" data-name="Capa 1" xmlns="http://www.w3.org/2000/svg" viewBox="0 0 1080 1080">
  <defs>
    <style>
      .cls-1 {
        opacity: .71;
      }

      .cls-1, .cls-2 {
        fill: #ffffff;
      }
    </style>
  </defs>
  <path class="cls-2" d="M295.91,946.9h252.42c.93,0,2.29-.02,3.93-.06,53.96-1.34,95.14-23.68,112.16-34.2,6.16-3.8,32.41-20.43,58.01-51.12,45.97-55.1,56.15-116.38,56.95-144.07.2-7.08,0-14.94,0-14.94s-.92-35.82-9.51-66.64c-18.32-65.74-68.66-108.56-68.66-108.56-66.95-56.82-166.86-63.91-166.87-63.68,0,.03.17.07.52.11,65.35,7.59,115.5,53.27,123.41,107.83,4.97,34.3-6.25,75.56-37.84,103.72-34.68,30.91-76.31,30.37-85.57,30.03h-111.19l-127.76,241.58Z"/>
  <path class="cls-2" d="M783.63,133.1h-252.42c-.93,0-2.29.02-3.93.06-53.96,1.34-95.14,23.68-112.16,34.2-29.53,18.25-47.36,38.73-58.01,51.12-9.37,10.89-22.36,26.2-34.04,49.66,0,0-21.9,43.98-22.98,92.6-.16,7.44.07,16.17.07,16.17.21,7.63.57,19.63,2.65,34.38,0,0,2.37,16.77,6.86,32.84,3.69,13.18,21.79,68.79,68.66,108.56,66.95,56.82,166.86,63.91,166.87,63.68,0-.03-.17-.07-.52-.11-65.35-7.59-115.5-53.27-123.41-107.83-4.97-34.3,6.25-75.56,37.84-103.72,34.68-30.91,76.31-30.37,85.57-30.03h111.19s127.76-241.58,127.76-241.58Z"/>
  <polygon class="cls-1" points="749.62 374.73 666.21 374.73 793.04 133.1 876.26 133.1 749.62 374.73"/>
  <g>
    <polygon class="cls-1" points="388.78 752.98 287.15 946.9 203.74 946.9 305.53 752.98 388.78 752.98"/>
    <polygon class="cls-1" points="413.79 705.27 393.16 744.64 309.9 744.64 330.57 705.27 413.79 705.27"/>
  </g>
</svg>